<svg width="32" height="32" viewBox="0 0 32 32" fill="none" xmlns="http://www.w3.org/2000/svg">
<path d="M2 27C10.5193 30.6511 17.5573 29.3797 22.6636 26.6813C22.8872 26.5632 23.1293 26.4851 23.3796 26.4489C26.4311 26.0081 27.9484 25.043 29.2035 24.1043C29.7077 23.7272 30 23.1295 30 22.5V21.9139C30 21.6409 29.9441 21.3707 29.8357 21.1201L22.4324 3.99988C22.1628 3.37653 21.5954 2.93256 20.9255 2.82091L16.8809 2.14681C16.3203 2.05338 15.7464 2.20284 15.3027 2.55786L12.2204 5.02366C11.6506 5.47955 11.7452 6.37258 12.3979 6.69895L14.5777 7.78885C14.8554 7.92771 15.1616 8 15.4721 8H18C18.3996 9.79137 18.0498 10.1078 18.6339 11.3248C18.8475 11.7701 18.9318 12.2678 18.8866 12.7596C18.7145 14.6346 19.5551 15.2757 20 17.5C18.7092 17.2234 17.9284 17.0998 17.3191 17.1292C16.4885 17.1694 15.6021 17.1181 14.9202 16.6422C12.1046 14.6773 6.51261 12.4874 2 17" stroke="#A4A4A8" stroke-width="2.5" stroke-linecap="round"/>
</svg>
