<svg width="32" height="32" viewBox="0 0 32 32" fill="none" xmlns="http://www.w3.org/2000/svg">
<path d="M27.5539 6.21192C28.1272 5.82754 28.9038 5.98049 29.2882 6.55371C29.6726 7.12705 29.5197 7.90361 28.9465 8.28809C20.8783 13.6971 18.3485 17.1543 13.1299 25.6104L11.9746 27.2969L11 25.5C9.85227 23.3841 9.02754 22.253 7.8947 20.9834C6.90361 19.8727 5.76224 18.8867 4.21891 17.7637L3.53239 17.2734L3.43083 17.1943C2.95198 16.7799 2.85528 16.0618 3.22673 15.5322C3.5987 15.0023 4.30776 14.849 4.86052 15.1592C3.93501 14.4879 4.89396 15.1811 4.86052 15.1592C7 16 11.1717 19.6256 12 21C16.9304 13.6862 19.586 11.5538 27.5539 6.21192Z" fill="#A4A4A8"/>
</svg>
