<svg width="32" height="32" viewBox="0 0 32 32" fill="none" xmlns="http://www.w3.org/2000/svg">
<path d="M30 3C30 3.82164 29.4926 6.12027 27.9392 7.64286M19 7.64286C19.5848 8.10527 20.7368 8.34763 22 8.57143C23.9767 8.92164 25.2258 8.82118 26 8.57143C26.778 8.32048 27.4176 8.15415 27.9392 7.64286M27.9392 7.64286C28.1262 8.72619 27 13.2143 26 15.0714C24.6962 17.4928 26.0608 25.2857 27 29" stroke="#A4A4A8" stroke-width="2.5" stroke-linecap="round"/>
<path d="M2 3C2 3.82164 2.50735 6.12027 4.06077 7.64286M13 7.64286C12.4152 8.10527 11.2632 8.34763 10 8.57143C8.02329 8.92164 6.77425 8.82118 6.00001 8.57143C5.22203 8.32048 4.58242 8.15415 4.06077 7.64286M4.06077 7.64286C3.87384 8.72619 5 13.2143 6 15.0714C7.30384 17.4928 5.50001 25.2857 5.00001 29" stroke="#A4A4A8" stroke-width="2.5" stroke-linecap="round"/>
<path d="M21 18C17.8889 18 16.3704 16.6667 16 16C15.6296 16.6667 14.1111 18 11 18" stroke="#A4A4A8" stroke-width="2.5" stroke-linecap="round"/>
<path d="M21 26C17.8889 26 16.3704 24.6667 16 24C15.6296 24.6667 14.1111 26 11 26" stroke="#A4A4A8" stroke-width="2.5" stroke-linecap="round"/>
</svg>
