<svg width="32" height="32" viewBox="0 0 32 32" fill="none" xmlns="http://www.w3.org/2000/svg">
<path d="M7 13V24.7151C7 26.6576 8.39488 28.3375 10.3206 28.593C14.4089 29.1354 17.5955 29.1358 21.6805 28.5935C23.6057 28.3379 25 26.6581 25 24.716V13" stroke="#A4A4A8" stroke-width="2.5" stroke-linecap="round"/>
<path d="M5.79929 12.1592C13.4367 13.2702 18.4386 13.2901 26.2016 12.1597C27.238 12.0088 28 11.1145 28 10.0671C28 8.89085 27.0464 7.93727 25.8701 7.93727H24.1896C23.2352 7.93727 22.4615 7.16356 22.4615 6.20915C22.4615 5.08279 21.4017 4.26393 20.2977 4.48737C17.1838 5.11759 14.8161 5.14855 11.7111 4.50924C10.6072 4.28193 9.53846 5.09582 9.53846 6.22295C9.53846 7.16974 8.77094 7.93727 7.82414 7.93727H6.12933C4.95333 7.93727 4 8.8906 4 10.0666C4 11.1141 4.76269 12.0084 5.79929 12.1592Z" stroke="#A4A4A8" stroke-width="2.5" stroke-linecap="round"/>
<path d="M12 17V24M20 17V24M16 17V24" stroke="#A4A4A8" stroke-width="2.5" stroke-linecap="round"/>
</svg>
