<svg width="32" height="32" viewBox="0 0 32 32" fill="none" xmlns="http://www.w3.org/2000/svg">
<path d="M14 26L28.4142 11.5858C28.7893 11.2107 29 10.702 29 10.1716V6.82843C29 6.29799 28.7893 5.78929 28.4142 5.41421L26.5858 3.58579C26.2107 3.21071 25.702 3 25.1716 3H21.8284C21.298 3 20.7893 3.21071 20.4142 3.58579L6 18M14 26V21.8284C14 21.298 13.7893 20.7893 13.4142 20.4142L11.5858 18.5858C11.2107 18.2107 10.702 18 10.1716 18H6M14 26L8 28M6 18L4 24M4 24L2.63246 28.1026C2.37187 28.8844 3.11561 29.6281 3.89737 29.3675L8 28M4 24H6C7.10457 24 8 24.8954 8 26V28" stroke="#A4A4A8" stroke-width="2.5" stroke-linecap="round"/>
</svg>
