<svg width="32" height="32" viewBox="0 0 32 32" fill="none" xmlns="http://www.w3.org/2000/svg">
<circle cx="16" cy="14" r="12" fill="white" stroke="#6E49EB" stroke-width="2.5"/>
<path d="M16 31L11 26H21L16 31Z" fill="#6E49EB"/>
<g clip-path="url(#clip0_81_205)">
<path d="M9.15258 13.15C9.39102 10.7156 11.7603 9.3026 14.1213 9.94205C14.7797 10.1204 15.3013 10.2505 15.5739 10.2505C15.7746 10.2505 16.4091 10.0693 17.2347 9.84159C19.4272 9.23691 21.7115 10.4643 21.9858 12.7221C22.1289 13.9 22.0997 15.0573 21.9095 16.2472C21.5471 18.5133 19.2602 19.7527 17.041 19.168C16.266 18.9639 15.6632 18.8058 15.4278 18.8058C15.1943 18.8058 14.674 18.932 14.0006 19.1046C11.6251 19.7132 9.24634 18.2683 9.09969 15.8204C9.04612 14.9262 9.06508 14.0434 9.15258 13.15Z" stroke="#6E49EB" stroke-width="1.5"/>
<path d="M15.9141 20.5303C16.207 20.8232 16.6819 20.8232 16.9748 20.5303C17.2677 20.2374 17.2677 19.7626 16.9748 19.4697L15.9141 20.5303ZM15.4444 19L14.9141 19.5303L15.9141 20.5303L16.4444 20L16.9748 19.4697L15.9748 18.4697L15.4444 19Z" fill="#6E49EB"/>
<path d="M13.6257 19.6294C13.37 19.9553 13.4268 20.4267 13.7526 20.6825C14.0784 20.9382 14.5499 20.8814 14.8056 20.5556L13.6257 19.6294ZM15.0733 19L14.4833 18.5369L13.6257 19.6294L14.2157 20.0925L14.8056 20.5556L15.6632 19.4631L15.0733 19Z" fill="#6E49EB"/>
<path d="M17.5606 6.49827C17.8357 6.18869 17.8079 5.71463 17.4983 5.43944C17.1887 5.16425 16.7146 5.19214 16.4394 5.50173L17.5606 6.49827ZM16 10H16.75C16.75 9.62213 16.8534 8.83401 17.0315 8.04673C17.119 7.65994 17.2196 7.29595 17.3248 7.00214C17.3774 6.85537 17.4279 6.73524 17.4742 6.64298C17.4971 6.59732 17.5171 6.56232 17.5335 6.5366C17.5416 6.52393 17.5481 6.51452 17.553 6.50788C17.5554 6.50461 17.5573 6.50221 17.5586 6.50057C17.56 6.49894 17.5606 6.49821 17.5606 6.49827L17 6L16.4394 5.50173C16.2035 5.76713 16.0354 6.1538 15.9127 6.4963C15.7804 6.86551 15.6643 7.29214 15.5685 7.71577C15.3799 8.54932 15.25 9.4612 15.25 10H16Z" fill="#6E49EB"/>
<path d="M16 9.99973C15.3117 10.0226 11.931 8.58865 13.3402 7.28346C14.6545 6.06608 15.9689 9.10955 16 9.99973Z" fill="#6E49EB"/>
</g>
<defs>
<clipPath id="clip0_81_205">
<rect width="18" height="18" fill="white" transform="translate(7 5)"/>
</clipPath>
</defs>
</svg>
