<?xml version="1.0" encoding="utf-8"?>
<!-- Generator: Adobe Illustrator 28.2.0, SVG Export Plug-In . SVG Version: 6.00 Build 0)  -->
<svg version="1.1" id="Layer_1" xmlns="http://www.w3.org/2000/svg" xmlns:xlink="http://www.w3.org/1999/xlink" x="0px" y="0px"
	 viewBox="0 0 224.38 224.38" style="enable-background:new 0 0 224.38 224.38;" xml:space="preserve">
<style type="text/css">
	.st0{fill:url(#SVGID_1_);}
	.st1{fill:#1A1A1A;}
</style>
<g>
	<linearGradient id="SVGID_1_" gradientUnits="userSpaceOnUse" x1="112.1897" y1="224.3795" x2="112.1897" y2="0">
		<stop  offset="5.647457e-07" style="stop-color:#4C006A"/>
		<stop  offset="0.4325" style="stop-color:#5D24AA"/>
		<stop  offset="0.8453" style="stop-color:#6E49EB"/>
		<stop  offset="1" style="stop-color:#C3AAFF"/>
	</linearGradient>
	<circle class="st0" cx="112.19" cy="112.19" r="112.19"/>
	<path class="st1" d="M7.7,106.47c0.46-8.54,2.07-19.24,6.42-30.86c2.5-6.68,8.65-21.01,21.87-35.01
		c6.72-7.11,13.29-12.05,18.11-15.25c10.6-7.03,20.58-10.84,27.71-12.98C91.88,22.44,101.94,32.5,112,42.56
		c9.99-9.99,19.99-19.99,29.98-29.98c10.2,3.18,23.78,9.04,36.88,20.19c4.51,3.84,27.23,23.84,34.46,57.73
		c1.51,7.08,1.98,13.06,2.14,17.06c-13.18,0-26.36,0-39.54,0c-0.31-11.1-1.39-23.93-3.88-38.02c-2.41-13.63-5.66-25.69-9.04-35.98
		c-0.53,0-1.05,0-1.58,0c-16.52,16.52-33.04,33.04-49.56,49.56C95.34,66.6,78.82,50.08,62.3,33.56c-0.77,0-1.53,0-2.3,0
		c-3.78,11.64-7.36,25.4-9.81,41.02c-1.88,11.98-2.78,23.07-3.1,32.98c-11.7,0-23.4,0-35.09,0c-1.45,0-2.9,0-4.35,0
		C7.67,107.2,7.68,106.84,7.7,106.47z"/>
	<path class="st1" d="M7.65,116.56c13.1,0,26.21,0,39.31,0c0.02,7.55,0.36,15.73,1.18,24.45c0.63,6.66,1.47,12.95,2.45,18.83
		c16.59,3.15,37.01,5.69,60.4,5.72c23.7,0.02,44.38-2.54,61.12-5.73c1.35-7.71,2.47-16.16,3.16-25.26
		c0.48-6.31,0.7-12.33,0.74-18.01c13.15,0,26.29,0,39.44,0c-0.37,8.58-1.97,21.32-7.87,35.49c-6.68,16.04-16.11,27.29-23.22,34.27
		c-8.82,8.65-17.59,14.18-23.98,17.58c2.11-5.84,4.15-12.12,6.02-18.84c1.22-4.39,2.29-8.66,3.22-12.78
		c-16.23,2.95-36.04,5.28-58.62,5.27c-22.32-0.01-41.91-2.29-58.01-5.19c1.11,5.15,2.44,10.56,4.02,16.19
		c1.46,5.2,3.02,10.12,4.62,14.75c-7.59-4.17-18.6-11.43-28.91-23.42c-13.44-15.63-19.13-31.66-21.63-40.85
		C9.09,131.58,7.97,124.08,7.65,116.56z"/>
</g>
</svg>
