<svg width="32" height="32" viewBox="0 0 32 32" fill="none" xmlns="http://www.w3.org/2000/svg">
<path d="M16 16L23.2664 7.28037C24.3519 5.97771 23.4256 4 21.7299 4H10.2701C8.57441 4 7.6481 5.97771 8.73364 7.28037L16 16ZM16 16L23.2664 24.7196C24.3519 26.0223 23.4256 28 21.7299 28H10.2701C8.57441 28 7.6481 26.0223 8.73364 24.7196L16 16Z" stroke="#A4A4A8" stroke-width="2.5" stroke-linecap="round"/>
<path d="M6 28H26" stroke="#A4A4A8" stroke-width="2.5" stroke-linecap="round"/>
<path d="M6 4H26" stroke="#A4A4A8" stroke-width="2.5" stroke-linecap="round"/>
<path d="M10.5 23C11.5 22.6667 14.5689 21.2845 16 22C18 23 20.5 22.6667 21.5 23" stroke="#A4A4A8" stroke-width="2.5" stroke-linecap="round"/>
</svg>
