<svg width="118" height="44" viewBox="0 0 118 44" fill="none" xmlns="http://www.w3.org/2000/svg">
<path d="M16.6676 6.65625H12.9347C12.8665 6.1733 12.7273 5.74432 12.517 5.36932C12.3068 4.98864 12.0369 4.66477 11.7074 4.39773C11.3778 4.13068 10.9972 3.92614 10.5653 3.78409C10.1392 3.64205 9.67614 3.57102 9.17614 3.57102C8.27273 3.57102 7.4858 3.79545 6.81534 4.24432C6.14489 4.6875 5.625 5.33523 5.25568 6.1875C4.88636 7.03409 4.7017 8.0625 4.7017 9.27273C4.7017 10.517 4.88636 11.5625 5.25568 12.4091C5.63068 13.2557 6.15341 13.8949 6.82386 14.3267C7.49432 14.7585 8.26989 14.9744 9.15057 14.9744C9.64489 14.9744 10.1023 14.9091 10.5227 14.7784C10.9489 14.6477 11.3267 14.4574 11.6562 14.2074C11.9858 13.9517 12.2585 13.642 12.4744 13.2784C12.696 12.9148 12.8494 12.5 12.9347 12.0341L16.6676 12.0511C16.571 12.8523 16.3295 13.625 15.9432 14.3693C15.5625 15.108 15.0483 15.7699 14.4006 16.3551C13.7585 16.9347 12.9915 17.3949 12.0994 17.7358C11.2131 18.071 10.2102 18.2386 9.09091 18.2386C7.53409 18.2386 6.14205 17.8864 4.91477 17.1818C3.69318 16.4773 2.72727 15.4574 2.01705 14.1222C1.3125 12.7869 0.960227 11.1705 0.960227 9.27273C0.960227 7.36932 1.31818 5.75 2.03409 4.41477C2.75 3.07955 3.72159 2.0625 4.94886 1.36364C6.17614 0.659091 7.55682 0.306818 9.09091 0.306818C10.1023 0.306818 11.0398 0.448863 11.9034 0.732954C12.7727 1.01705 13.5426 1.43182 14.2131 1.97727C14.8835 2.51704 15.429 3.17898 15.8494 3.96307C16.2756 4.74716 16.5483 5.64489 16.6676 6.65625ZM22.8764 10.4318V18H19.2457V0.545454H22.7741V7.21875H22.9276C23.223 6.44602 23.7003 5.84091 24.3594 5.40341C25.0185 4.96023 25.8452 4.73864 26.8395 4.73864C27.7486 4.73864 28.5412 4.9375 29.2173 5.33523C29.8991 5.72727 30.4276 6.29261 30.8026 7.03125C31.1832 7.7642 31.3707 8.64205 31.3651 9.66477V18H27.7344V10.3125C27.7401 9.50568 27.5355 8.87784 27.1207 8.42898C26.7116 7.98011 26.1378 7.75568 25.3991 7.75568C24.9048 7.75568 24.4673 7.8608 24.0866 8.07102C23.7116 8.28125 23.4162 8.58807 23.2003 8.99148C22.9901 9.3892 22.8821 9.86932 22.8764 10.4318ZM40.1882 18.2557C38.8416 18.2557 37.6825 17.983 36.7109 17.4375C35.745 16.8864 35.0007 16.108 34.478 15.1023C33.9553 14.0909 33.6939 12.8949 33.6939 11.5142C33.6939 10.1676 33.9553 8.9858 34.478 7.96875C35.0007 6.9517 35.7365 6.15909 36.6854 5.59091C37.6399 5.02273 38.7592 4.73864 40.0433 4.73864C40.907 4.73864 41.7109 4.87784 42.4553 5.15625C43.2053 5.42898 43.8587 5.84091 44.4155 6.39205C44.978 6.94318 45.4155 7.63636 45.728 8.47159C46.0405 9.30114 46.1967 10.2727 46.1967 11.3864V12.3835H35.1428V10.1335H42.7791C42.7791 9.6108 42.6655 9.14773 42.4382 8.74432C42.2109 8.34091 41.8956 8.02557 41.4922 7.7983C41.0945 7.56534 40.6314 7.44886 40.103 7.44886C39.5518 7.44886 39.0632 7.5767 38.6371 7.83239C38.2166 8.08239 37.8871 8.42045 37.6484 8.84659C37.4098 9.26705 37.2876 9.7358 37.282 10.2528V12.392C37.282 13.0398 37.4013 13.5994 37.6399 14.071C37.8842 14.5426 38.228 14.9062 38.6712 15.1619C39.1143 15.4176 39.6399 15.5455 40.2479 15.5455C40.6513 15.5455 41.0206 15.4886 41.3558 15.375C41.6911 15.2614 41.978 15.0909 42.2166 14.8636C42.4553 14.6364 42.6371 14.358 42.7621 14.0284L46.12 14.25C45.9496 15.0568 45.6001 15.7614 45.0717 16.3636C44.549 16.9602 43.8729 17.4261 43.0433 17.7614C42.2195 18.0909 41.2678 18.2557 40.1882 18.2557ZM59.4581 8.64205L56.1342 8.84659C56.0774 8.5625 55.9553 8.30682 55.7678 8.07955C55.5803 7.84659 55.3331 7.66193 55.0263 7.52557C54.7251 7.38352 54.3643 7.3125 53.9439 7.3125C53.3814 7.3125 52.907 7.43182 52.5206 7.67045C52.1342 7.90341 51.9411 8.21591 51.9411 8.60795C51.9411 8.92045 52.0661 9.18466 52.3161 9.40057C52.5661 9.61648 52.995 9.78977 53.603 9.92045L55.9723 10.3977C57.245 10.6591 58.1939 11.0795 58.8189 11.6591C59.4439 12.2386 59.7564 13 59.7564 13.9432C59.7564 14.8011 59.5036 15.554 58.9979 16.2017C58.4979 16.8494 57.8104 17.3551 56.9354 17.7188C56.0661 18.0767 55.0632 18.2557 53.9268 18.2557C52.1939 18.2557 50.8132 17.8949 49.7848 17.1733C48.7621 16.446 48.1626 15.4574 47.9865 14.2074L51.5575 14.0199C51.6655 14.5483 51.9268 14.9517 52.3416 15.2301C52.7564 15.5028 53.2876 15.6392 53.9354 15.6392C54.5717 15.6392 55.0831 15.517 55.4695 15.2727C55.8615 15.0227 56.0604 14.7017 56.0661 14.3097C56.0604 13.9801 55.9212 13.7102 55.6484 13.5C55.3757 13.2841 54.9553 13.1193 54.3871 13.0057L52.12 12.554C50.8416 12.2983 49.8899 11.8551 49.2649 11.2244C48.6456 10.5937 48.3359 9.78977 48.3359 8.8125C48.3359 7.97159 48.5632 7.24716 49.0178 6.6392C49.478 6.03125 50.1229 5.5625 50.9524 5.23295C51.7876 4.90341 52.7649 4.73864 53.8842 4.73864C55.5376 4.73864 56.8388 5.08807 57.7876 5.78693C58.7422 6.4858 59.299 7.4375 59.4581 8.64205ZM69.0057 4.90909V7.63636H61.1222V4.90909H69.0057ZM62.9119 1.77273H66.5426V13.9773C66.5426 14.3125 66.5938 14.5739 66.696 14.7614C66.7983 14.9432 66.9403 15.071 67.1222 15.1449C67.3097 15.2187 67.5256 15.2557 67.7699 15.2557C67.9403 15.2557 68.1108 15.2415 68.2812 15.2131C68.4517 15.179 68.5824 15.1534 68.6733 15.1364L69.2443 17.8381C69.0625 17.8949 68.8068 17.9602 68.4773 18.0341C68.1477 18.1136 67.7472 18.1619 67.2756 18.179C66.4006 18.2131 65.6335 18.0966 64.9744 17.8295C64.321 17.5625 63.8125 17.1477 63.4489 16.5852C63.0852 16.0227 62.9063 15.3125 62.9119 14.4545V1.77273ZM81.7493 18.2131C80.755 18.2131 79.8544 17.9574 79.0476 17.446C78.2464 16.929 77.6101 16.1705 77.1385 15.1705C76.6726 14.1648 76.4396 12.9318 76.4396 11.4716C76.4396 9.97159 76.6811 8.72443 77.1641 7.73011C77.647 6.73011 78.2891 5.98295 79.0902 5.48864C79.897 4.98864 80.7805 4.73864 81.7408 4.73864C82.4737 4.73864 83.0845 4.86364 83.5732 5.11364C84.0675 5.35795 84.4652 5.66477 84.7663 6.03409C85.0732 6.39773 85.3061 6.75568 85.4652 7.10795H85.576V0.545454H89.1982V18H85.6186V15.9034H85.4652C85.2947 16.267 85.0533 16.6278 84.7408 16.9858C84.4339 17.3381 84.0334 17.6307 83.5391 17.8636C83.0504 18.0966 82.4538 18.2131 81.7493 18.2131ZM82.8999 15.3239C83.4851 15.3239 83.9794 15.1648 84.3828 14.8466C84.7919 14.5227 85.1044 14.071 85.3203 13.4915C85.5419 12.9119 85.6527 12.233 85.6527 11.4545C85.6527 10.6761 85.5447 10 85.3288 9.42614C85.1129 8.85227 84.8004 8.40909 84.3913 8.09659C83.9822 7.78409 83.4851 7.62784 82.8999 7.62784C82.3033 7.62784 81.8004 7.78977 81.3913 8.11364C80.9822 8.4375 80.6726 8.88636 80.4624 9.46023C80.2521 10.0341 80.147 10.6989 80.147 11.4545C80.147 12.2159 80.2521 12.8892 80.4624 13.4744C80.6783 14.054 80.9879 14.5085 81.3913 14.8381C81.8004 15.1619 82.3033 15.3239 82.8999 15.3239ZM95.9162 18.2472C95.081 18.2472 94.3366 18.1023 93.6832 17.8125C93.0298 17.517 92.5128 17.0824 92.1321 16.5085C91.7571 15.929 91.5696 15.2074 91.5696 14.3438C91.5696 13.6165 91.7031 13.0057 91.9702 12.5114C92.2372 12.017 92.6009 11.6193 93.0611 11.3182C93.5213 11.017 94.044 10.7898 94.6293 10.6364C95.2202 10.483 95.8395 10.375 96.4872 10.3125C97.2486 10.233 97.8622 10.1591 98.3281 10.0909C98.794 10.017 99.1321 9.90909 99.3423 9.76705C99.5526 9.625 99.6577 9.41477 99.6577 9.13636V9.08523C99.6577 8.54545 99.4872 8.12784 99.1463 7.83239C98.8111 7.53693 98.3338 7.3892 97.7145 7.3892C97.0611 7.3892 96.5412 7.53409 96.1548 7.82386C95.7685 8.10795 95.5128 8.46591 95.3878 8.89773L92.0298 8.625C92.2003 7.82955 92.5355 7.14205 93.0355 6.5625C93.5355 5.97727 94.1804 5.52841 94.9702 5.21591C95.7656 4.89773 96.6861 4.73864 97.7315 4.73864C98.4588 4.73864 99.1548 4.82386 99.8196 4.99432C100.49 5.16477 101.084 5.42898 101.601 5.78693C102.124 6.14489 102.536 6.60511 102.837 7.16761C103.138 7.72443 103.288 8.39205 103.288 9.17045V18H99.8452V16.1847H99.7429C99.5327 16.5938 99.2514 16.9545 98.8991 17.267C98.5469 17.5739 98.1236 17.8153 97.6293 17.9915C97.1349 18.1619 96.5639 18.2472 95.9162 18.2472ZM96.956 15.7415C97.4901 15.7415 97.9616 15.6364 98.3707 15.4261C98.7798 15.2102 99.1009 14.9205 99.3338 14.5568C99.5668 14.1932 99.6832 13.7812 99.6832 13.321V11.9318C99.5696 12.0057 99.4134 12.0739 99.2145 12.1364C99.0213 12.1932 98.8026 12.2472 98.5582 12.2983C98.3139 12.3437 98.0696 12.3864 97.8253 12.4261C97.581 12.4602 97.3594 12.4915 97.1605 12.5199C96.7344 12.5824 96.3622 12.6818 96.044 12.8182C95.7259 12.9545 95.4787 13.1392 95.3026 13.3722C95.1264 13.5994 95.0384 13.8835 95.0384 14.2244C95.0384 14.7188 95.2173 15.0966 95.5753 15.358C95.9389 15.6136 96.3991 15.7415 96.956 15.7415ZM107.878 22.9091C107.418 22.9091 106.986 22.8722 106.582 22.7983C106.185 22.7301 105.855 22.642 105.594 22.5341L106.412 19.8239C106.838 19.9545 107.222 20.0256 107.562 20.0369C107.909 20.0483 108.207 19.9688 108.457 19.7983C108.713 19.6278 108.92 19.3381 109.08 18.929L109.293 18.375L104.597 4.90909H108.415L111.125 14.5227H111.261L113.997 4.90909H117.841L112.753 19.4148C112.509 20.1193 112.176 20.733 111.756 21.2557C111.341 21.7841 110.815 22.1903 110.179 22.4744C109.543 22.7642 108.776 22.9091 107.878 22.9091ZM47 43.68H71V19.68H47V43.68Z" fill="#FEFFFE"/>
</svg>
