<svg width="32" height="32" viewBox="0 0 32 32" fill="none" xmlns="http://www.w3.org/2000/svg">
<path d="M7.76855 9.46387C8.14115 9.90803 8.63549 10.0521 8.97363 10.0996C9.31868 10.1481 9.66575 10.1218 9.93262 10.0908C10.0368 10.0787 10.1446 10.0617 10.251 10.0459C10.2756 13.2004 12.8397 15.75 16 15.75C19.1584 15.75 21.7202 13.2036 21.748 10.0518L22.1826 10.1396C22.3631 10.176 22.6339 10.2271 22.9111 10.2285C23.1822 10.2299 23.6468 10.1869 24.0615 9.85352C24.1286 9.79955 24.1869 9.74009 24.2412 9.68066C24.2452 9.78664 24.25 9.89303 24.25 10C24.25 14.5563 20.5563 18.25 16 18.25C11.4437 18.25 7.75 14.5563 7.75 10C7.75 9.81985 7.75718 9.64114 7.76855 9.46387ZM16 1.75C18.2195 1.75 20.233 2.62797 21.7158 4.05371C20.8163 3.66438 19.8119 3.39479 19.0195 3.25977L18.7803 3.22266C16.7511 2.94273 15.5194 2.92864 13.6055 3.17188L12.7393 3.29102C12.0554 3.39228 11.1992 3.61296 10.4102 3.93359C11.8801 2.57844 13.8431 1.75 16 1.75Z" fill="#A4A4A8"/>
<path d="M21.6304 9.19068C17.7565 8.61861 14.523 8.60352 10.6829 9.14543C9.26191 9.34595 7.84999 9.23671 7.98129 7.80768C8.13848 6.09671 9.94603 4.82471 11.6482 4.59093C14.8861 4.14625 16.9508 4.13657 20.1377 4.56192C21.94 4.80247 23.7077 6.20359 23.9026 8.01139C24.0343 9.23395 22.8469 9.37032 21.6304 9.19068Z" stroke="#A4A4A8" stroke-width="2.5" stroke-linecap="round" stroke-linejoin="round"/>
<path d="M28 29L28.3478 26.5657C28.692 24.156 26.8222 22 24.388 22H7.61204C5.17784 22 3.30799 24.156 3.65224 26.5657L4 29" stroke="#A4A4A8" stroke-width="2.5" stroke-linecap="round" stroke-linejoin="round"/>
</svg>
